<svg width="34" height="13" viewBox="0 0 34 13" fill="none" xmlns="http://www.w3.org/2000/svg">
<rect width="34" height="13" rx="6.5" fill="#25D366"/>
<path d="M3.01953 10L5.72949 2.85156H6.74023L9.4502 10H8.41016L7.61914 7.89062H4.69922L4.32812 8.88184C4.16862 9.34082 4.06934 9.71354 4.03027 10H3.01953ZM4.98242 7.14844H7.34082L6.16895 3.99902L4.98242 7.14844ZM12.1797 10.1416C11.4245 10.1416 10.806 9.87793 10.3242 9.35059C9.8457 8.81999 9.60645 8.13965 9.60645 7.30957C9.60645 6.45996 9.84896 5.7666 10.334 5.22949C10.819 4.68913 11.4408 4.41895 12.1992 4.41895C12.7591 4.41895 13.2311 4.5638 13.6152 4.85352C14.0026 5.14323 14.2744 5.55176 14.4307 6.0791L13.6689 6.55762C13.5713 6.10189 13.3988 5.7487 13.1514 5.49805C12.904 5.2474 12.5833 5.12207 12.1895 5.12207C11.7142 5.12207 11.3252 5.32552 11.0225 5.73242C10.7197 6.13932 10.5684 6.66504 10.5684 7.30957C10.5684 7.94108 10.7181 8.45378 11.0176 8.84766C11.3171 9.24154 11.7077 9.43848 12.1895 9.43848C12.5898 9.43848 12.9251 9.30664 13.1953 9.04297C13.4655 8.7793 13.6494 8.44889 13.7471 8.05176L14.5186 8.5498C14.3916 8.78418 14.2549 8.99251 14.1084 9.1748C13.9652 9.3571 13.7992 9.52474 13.6104 9.67773C13.4215 9.82747 13.2051 9.94141 12.9609 10.0195C12.7201 10.1009 12.4596 10.1416 12.1797 10.1416ZM16.8184 10.1416C16.4375 10.1416 16.1445 10.0391 15.9395 9.83398C15.7344 9.62891 15.6318 9.32129 15.6318 8.91113V5.25879H14.6992V4.56055H15.6318V3.62793C15.9378 3.5498 16.2471 3.40332 16.5596 3.18848C16.54 3.64746 16.5303 4.08854 16.5303 4.51172V4.56055H17.668V5.25879H16.5303V8.82812C16.5303 9.19596 16.6865 9.37988 16.999 9.37988C17.2367 9.37988 17.4629 9.31641 17.6777 9.18945L17.5801 10.0098C17.3327 10.0977 17.0788 10.1416 16.8184 10.1416ZM18.4639 10V4.56055H19.3623V8.70117C19.3623 9.20247 19.3786 9.63542 19.4111 10H18.4639ZM18.4053 3.73047V2.76855H19.4111V3.73047H18.4053ZM22.0918 10L20.0215 4.56055H20.9932L22.2529 7.88086C22.3213 8.0599 22.3831 8.24219 22.4385 8.42773C22.4971 8.61328 22.5378 8.75488 22.5605 8.85254L22.5947 8.99902C22.7347 8.65397 22.8779 8.28125 23.0244 7.88086L23.8643 5.59082C23.9847 5.2653 24.0742 4.92188 24.1328 4.56055H25.0312L23.0049 10H22.0918ZM27.7852 10.1416C27.4401 10.1416 27.1146 10.083 26.8086 9.96582C26.5059 9.84863 26.2373 9.67936 26.0029 9.45801C25.7686 9.2334 25.583 8.94531 25.4463 8.59375C25.3096 8.23893 25.2412 7.8418 25.2412 7.40234C25.2412 6.52344 25.4788 5.80729 25.9541 5.25391C26.4326 4.69727 27.043 4.41895 27.7852 4.41895C28.5306 4.41895 29.1051 4.68913 29.5088 5.22949C29.9124 5.76986 30.1143 6.50391 30.1143 7.43164H26.1836C26.1934 8.0599 26.3496 8.55143 26.6523 8.90625C26.9551 9.26107 27.3327 9.43848 27.7852 9.43848C28.1953 9.43848 28.5485 9.31315 28.8447 9.0625C29.141 8.81185 29.3444 8.50098 29.4551 8.12988L30.1826 8.65234C29.8962 9.14062 29.5495 9.51172 29.1426 9.76562C28.7357 10.0163 28.2832 10.1416 27.7852 10.1416ZM26.2324 6.72852H29.1816C29.1426 6.25 29.001 5.86263 28.7568 5.56641C28.5127 5.27018 28.1888 5.12207 27.7852 5.12207C27.3815 5.12207 27.043 5.2653 26.7695 5.55176C26.4961 5.83496 26.3171 6.22721 26.2324 6.72852Z" fill="white"/>
</svg>
